# xmcd
#
# Track frame offsets:
#       150
#       10562
#       23261
#       39007
#       54723
#       71300
#       81234
#       95909
#       109308
#       122505
#       140723
#       151764
#       162401
#       178332
#
# Disc length: 2548 seconds
#
# Revision: 0
# Processed by: cddbd v1.5.2PL0 Copyright (c) Steve Scherf et al.
# Submitted via: CD-DA_X-Tractor v0.24
#
DISCID=ac09f20e
DTITLE=Pat Donohue - Freewayman
DYEAR=2008
DGENRE=Blues
TTITLE0=Freewayman
TTITLE1=Big Bill Special
TTITLE2=Butch's Blues
TTITLE3=Nordeast Rag
TTITLE4=Whole Lotta You
TTITLE5=The Girl I left Behind Me
TTITLE6=2nd St. Blues
TTITLE7=Mountain Air
TTITLE8=Starlight
TTITLE9=Cyupress Grove Blues
TTITLE10=Drivin' Blues
TTITLE11=Saguaro Slide
TTITLE12=Stompin' at the Savoy
TTITLE13=Boogie Woogie Dance 
EXTD=
EXTT0=
EXTT1=
EXTT2=
EXTT3=
EXTT4=
EXTT5=
EXTT6=
EXTT7=
EXTT8=
EXTT9=
EXTT10=
EXTT11=
EXTT12=
EXTT13=
PLAYORDER=
